<svg width="100" height="100" viewBox="0 0 100 100" fill="none" xmlns="http://www.w3.org/2000/svg">
    <rect x="18" y="18" width="64" height="64" rx="12" fill="#1F2937"/>
    <path fill-rule="evenodd" clip-rule="evenodd"
          d="M33.2093 72.5027C34.1303 72.6684 35.0643 72.7512 36 72.75C38.9574 72.754 41.8557 71.9216 44.3603 70.349C46.1663 70.7737 48.0563 71 50 71C62.418 71 72.75 61.7367 72.75 50C72.75 38.2633 62.418 29 50 29C37.582 29 27.25 38.2633 27.25 50C27.25 55.621 29.6417 60.703 33.4893 64.448C34.0307 64.9753 34.1357 65.4467 34.082 65.715C33.7936 67.1665 33.1399 68.5205 32.1827 69.649C31.9839 69.8836 31.8505 70.1664 31.7959 70.469C31.7412 70.7716 31.7672 71.0832 31.8713 71.3725C31.9754 71.6618 32.1539 71.9186 32.3888 72.117C32.6237 72.3154 32.9067 72.4484 33.2093 72.5027ZM41.25 47.375C40.5538 47.375 39.8861 47.6516 39.3938 48.1438C38.9016 48.6361 38.625 49.3038 38.625 50C38.625 50.6962 38.9016 51.3639 39.3938 51.8562C39.8861 52.3484 40.5538 52.625 41.25 52.625C41.9462 52.625 42.6139 52.3484 43.1062 51.8562C43.5984 51.3639 43.875 50.6962 43.875 50C43.875 49.3038 43.5984 48.6361 43.1062 48.1438C42.6139 47.6516 41.9462 47.375 41.25 47.375ZM47.375 50C47.375 49.3038 47.6516 48.6361 48.1438 48.1438C48.6361 47.6516 49.3038 47.375 50 47.375C50.6962 47.375 51.3639 47.6516 51.8562 48.1438C52.3484 48.6361 52.625 49.3038 52.625 50C52.625 50.6962 52.3484 51.3639 51.8562 51.8562C51.3639 52.3484 50.6962 52.625 50 52.625C49.3038 52.625 48.6361 52.3484 48.1438 51.8562C47.6516 51.3639 47.375 50.6962 47.375 50ZM58.75 47.375C58.0538 47.375 57.3861 47.6516 56.8938 48.1438C56.4016 48.6361 56.125 49.3038 56.125 50C56.125 50.6962 56.4016 51.3639 56.8938 51.8562C57.3861 52.3484 58.0538 52.625 58.75 52.625C59.4462 52.625 60.1139 52.3484 60.6062 51.8562C61.0984 51.3639 61.375 50.6962 61.375 50C61.375 49.3038 61.0984 48.6361 60.6062 48.1438C60.1139 47.6516 59.4462 47.375 58.75 47.375Z"
          fill="#EFF6FF"/>
    <rect x="59" y="27" width="14" height="14" rx="7" fill="#00AEEF"/>
    <rect x="59" y="27" width="14" height="14" rx="7" stroke="#1F2937" stroke-width="2"/>
</svg>
